<?xml version="1.0" encoding="UTF-8" standalone="no"?>
<!-- Created with Inkscape (http://www.inkscape.org/) -->

<svg
   xmlns:dc="http://purl.org/dc/elements/1.1/"
   xmlns:cc="http://creativecommons.org/ns#"
   xmlns:rdf="http://www.w3.org/1999/02/22-rdf-syntax-ns#"
   xmlns:svg="http://www.w3.org/2000/svg"
   xmlns="http://www.w3.org/2000/svg"
   xmlns:sodipodi="http://sodipodi.sourceforge.net/DTD/sodipodi-0.dtd"
   xmlns:inkscape="http://www.inkscape.org/namespaces/inkscape"
   width="145.73001mm"
   height="92.279129mm"
   viewBox="0 0 145.73001 92.279129"
   version="1.1"
   id="svg19890"
   inkscape:version="0.92.0 r15299"
   sodipodi:docname="bills.svg">
  <defs
     id="defs19884" />
  <sodipodi:namedview
     id="base"
     pagecolor="#ffffff"
     bordercolor="#666666"
     borderopacity="1.0"
     inkscape:pageopacity="0.0"
     inkscape:pageshadow="2"
     inkscape:zoom="1.5449634"
     inkscape:cx="275.39529"
     inkscape:cy="174.38576"
     inkscape:document-units="mm"
     inkscape:current-layer="layer1"
     showgrid="false"
     fit-margin-top="0"
     fit-margin-left="0"
     fit-margin-right="0"
     fit-margin-bottom="0"
     inkscape:window-width="1280"
     inkscape:window-height="744"
     inkscape:window-x="-4"
     inkscape:window-y="-4"
     inkscape:window-maximized="1" />
  <metadata
     id="metadata19887">
    <rdf:RDF>
      <cc:Work
         rdf:about="">
        <dc:format>image/svg+xml</dc:format>
        <dc:type
           rdf:resource="http://purl.org/dc/dcmitype/StillImage" />
        <dc:title></dc:title>
      </cc:Work>
    </rdf:RDF>
  </metadata>
  <g
     inkscape:label="Layer 1"
     inkscape:groupmode="layer"
     id="layer1"
     transform="translate(-7.0099983,-105.97353)">
    <path
       style="fill:#000000;fill-rule:evenodd;stroke-width:0.26458332"
       inkscape:connector-curvature="0"
       d="m 107.25328,108.63102 c 1.23534,-0.47943 2.53287,-0.45191 3.7719,-0.19394 2.69956,0.56171 4.07511,2.44475 4.17381,5.27685 0.10504,3.00646 -0.4453,5.96 -0.61305,8.94397 -0.16033,2.84956 -0.47227,5.69013 -0.71251,8.53493 -0.42492,5.03343 -0.85354,10.06687 -1.26629,15.10136 -0.29794,3.63537 -0.55934,7.2734 -0.86016,10.90877 -0.40562,4.90194 -0.84721,9.80123 -1.24646,14.70422 a 456.57558,456.57558 0 0 0 -0.60908,8.54604 c -0.24924,3.98886 -0.49318,7.97534 -1.89389,11.77766 -1.1467,3.1115 -4.62227,4.37304 -7.30249,2.68235 -1.508654,-0.95171 -1.751803,-2.50428 -1.858965,-4.02617 -0.289449,-4.09998 0.305861,-8.17139 0.603779,-12.24968 0.249241,-3.41577 0.629186,-6.82201 0.932916,-10.23381 0.43604,-4.89823 0.8636,-9.797 1.27926,-14.69655 0.29316,-3.45705 0.53817,-6.91806 0.84561,-10.37352 0.39661,-4.45876 0.84746,-8.91275 1.24883,-13.37125 0.30772,-3.41153 0.47414,-6.83947 0.89165,-10.23672 0.3212,-2.61065 -0.0333,-5.27447 0.7276,-7.84755 0.26194,-0.88582 0.4027,-1.79387 1.09326,-2.47729 0.35693,-0.1614 0.62283,-0.41698 0.79428,-0.76967 m 15.36197,13.18895 c 4.19498,-1.09167 8.08832,1.27158 9.13079,5.73934 0.96043,4.11639 0.11984,7.94464 -2.44634,11.33898 -1.03903,1.37451 -2.49503,2.07513 -4.18413,2.22488 -3.18822,0.28231 -5.30939,-2.31007 -4.51273,-5.48349 0.14922,-0.5961 0.33734,-1.1885 0.57336,-1.75524 0.83554,-2.00978 0.7514,-4.01691 0.11747,-6.05923 -0.38974,-1.25465 -0.66834,-2.49978 -0.35958,-3.87641 0.18706,-0.83317 0.80249,-1.22555 1.16471,-1.85261 l 0.51645,-0.27622 m -54.501246,8.73045 c 2.420141,-0.67601 4.839232,-0.81703 7.25937,0.004 1.554692,0.52705 2.584982,1.56554 2.703251,3.21998 0.10292,1.44356 -0.694529,2.52465 -1.92537,3.22236 -2.93106,1.66158 -6.00446,1.90288 -9.12707,0.64558 -1.721641,-0.69268 -2.597679,-2.72627 -2.083059,-4.44394 0.5461,-0.90488 1.1811,-1.72694 2.100789,-2.28865 0.20002,-0.10583 0.399521,-0.21087 0.599281,-0.31617 l 0.472808,-0.0429 m -24.626088,-1.29116 c 0.02569,-1.41817 -0.48895,-2.1262 -1.900772,-2.41195 -4.175919,-0.84587 -7.893839,0.41328 -11.422589,2.53524 -0.49319,0.29634 -0.47731,0.69771 -0.4146,1.1348 0.60457,4.21005 1.2266,8.41798 1.82165,12.62962 0.11033,0.78237 0.41619,0.62362 0.82894,0.25056 3.136901,-2.83369 6.24549,-5.70759 8.86831,-9.03049 1.157021,-1.46579 2.182011,-3.10171 2.219061,-5.10778 z m -1.045642,24.80998 c -3.042179,-0.0511 -5.900999,0.88529 -8.811949,1.52029 -0.60642,0.13229 -0.72945,0.43392 -0.65034,1.03532 0.43577,3.30464 0.85937,6.61167 1.22158,9.92505 0.72522,6.62887 1.648621,13.22969 2.642661,19.82258 0.12356,0.821 0.419888,0.94959 1.128979,0.67125 0.941909,-0.36936 1.83038,-0.82074 2.718589,-1.31366 5.931961,-3.29142 11.030741,-7.46125 14.605532,-13.33817 2.427549,-3.99098 2.235729,-7.9891 -0.194742,-11.77476 -2.91465,-4.5413 -7.347209,-6.48229 -12.66031,-6.54764 z m -29.111839,27.30764 c 0.87048,-0.26935 1.68937,-0.73633 2.67097,-0.50747 1.79732,0.4191 2.7813,1.44436 2.82469,3.91477 0.086,4.8776 4.01215,5.47609 7.72266,5.17102 0.67839,-0.0558 0.88583,-0.40799 0.79322,-1.05886 a 3501.8575,3501.8575 0 0 1 -1.92246,-13.68743 4168.6866,4168.6866 0 0 1 -1.77774,-13.03866 73.601792,73.601792 0 0 1 -0.30241,-2.61726 c -0.0767,-0.77629 -0.4072,-1.24883 -1.23402,-1.43669 -1.46288,-0.33152 -2.39448,-1.4343 -2.62943,-2.77495 -0.28892,-1.65153 -0.14155,-3.38217 1.66502,-4.32514 0.55907,-0.29184 0.74348,-0.7075 0.65167,-1.29329 -0.61013,-3.89572 -1.22158,-7.79118 -1.83065,-11.68717 -0.0341,-0.21696 -0.0389,-0.4908 -0.30586,-0.5117 -0.29078,-0.0225 -0.44397,0.25135 -0.59796,0.4572 -0.87206,1.16152 -1.67878,2.37781 -2.61355,3.48615 -2.14895,2.54767 -4.62016,2.53814 -7.2757802,1.39832 -1.15781,-0.49742 -1.88912,-2.89216 -1.59279,-4.49157 0.44185,-2.38919 1.769,-4.2836 3.3247502,-6.05234 2.11667,-2.40533 4.3016,-4.74689 6.66221,-6.91568 0.59002,-0.54187 0.58817,-1.1012 0.37068,-1.78647 -0.57282,-1.80393 -0.51726,-3.63828 -0.12647,-5.46232 0.55616,-2.59556 2.28521,-4.16137 4.99798,-4.20502 2.16376,-0.0349 3.68565,0.59187 4.87786,3.29591 0.19368,0.43921 0.38709,0.90752 0.43312,1.37689 0.0905,0.9189 0.55404,0.95488 1.27133,0.70512 3.38084,-1.17819 6.89054,-1.4015 10.415581,-1.17925 3.183469,0.20055 6.261629,0.92948 8.954828,2.77019 4.494472,3.07287 5.645412,8.16028 3.032122,13.39056 -1.922991,3.84916 -4.540782,7.21757 -7.320232,10.47194 -0.267219,0.31327 -0.842158,0.57679 -0.607478,1.05463 0.205578,0.4191 0.77946,0.30374 1.21312,0.33999 7.034739,0.5887 12.535418,3.97007 16.978569,9.29878 2.065869,2.47783 3.574521,5.22711 4.16878,8.42063 0.90805,4.87971 -0.230719,9.31519 -2.9128,13.43554 -6.484941,9.96395 -15.85304,15.76044 -27.114241,18.83146 -3.746499,1.02182 -7.559139,1.73778 -11.451159,1.56077 -3.55441,-0.16218 -7.0956,-0.61912 -9.94913,-3.09059 -2.1508,-1.86267 -3.23956,-4.31086 -3.58907,-7.0911 -0.30057,-2.39104 0.21616,-4.53549 2.13466,-6.17802 z M 138.8567,147.21996 c 3.04616,-0.0966 5.74491,0.1487 8.3373,1.10861 2.85856,1.05833 4.15686,3.38111 3.42317,6.06927 -0.38894,1.42558 -1.45308,2.25028 -2.96863,2.38311 -1.97458,0.17303 -3.81687,-0.44609 -5.71446,-0.81069 -3.7965,-0.72945 -7.47183,-0.31141 -10.72542,1.93966 -1.87562,1.29752 -2.00343,3.57003 -0.43708,5.29828 1.96215,2.16562 4.59845,3.1967 7.24851,4.17354 2.80777,1.03479 5.67612,1.93649 8.26586,3.46922 2.90512,1.71873 5.09322,4.02801 5.78722,7.48612 0.50007,2.49105 -0.15875,4.81594 -1.51208,6.77836 -4.32753,6.27671 -10.14307,10.35738 -17.81256,11.65093 -2.97629,0.50217 -5.89543,0.38682 -8.77833,-0.22808 -5.334,-1.13797 -9.37102,-4.20264 -12.10892,-8.89661 -1.04167,-1.78514 -0.78158,-3.66051 0.36246,-4.7072 1.41474,-1.29487 3.64862,-1.42769 5.39089,-0.32306 0.6731,0.42651 1.26895,0.94218 1.80764,1.52824 5.20461,5.66049 10.45738,5.59461 16.52322,2.96941 1.82934,-0.79189 3.42028,-1.91399 4.7879,-3.40809 2.38655,-2.60774 1.80181,-5.58695 -1.41974,-7.04506 -2.9316,-1.32663 -5.99415,-2.30505 -8.9744,-3.49806 -3.29037,-1.3171 -6.37038,-2.88316 -8.71538,-5.73061 -1.82828,-2.22012 -1.88517,-4.66487 -1.52771,-7.21863 0.60007,-4.28889 3.53959,-6.96277 6.80774,-9.31545 3.64622,-2.62519 7.69566,-4.04283 11.95255,-3.67321 M 86.884075,107.02817 c 1.688042,-0.74004 3.41974,-0.64559 5.16387,-0.26141 1.431131,0.31512 2.30505,1.35281 2.60509,2.82972 0.486572,2.3958 0.293691,4.78763 0.245531,7.20328 -0.116411,5.81819 -0.16854,11.64458 5.29e-4,17.46038 0.328091,11.28369 0.0021,22.57028 0.269881,33.85026 0.135458,5.6859 0.0762,11.36809 0.146841,17.05187 0.0265,2.11693 -0.178591,4.21084 -0.531281,6.29259 -0.42916,2.53206 -2.22594,3.65283 -4.781021,3.3012 -1.866641,-0.25664 -3.39381,-0.87392 -4.31456,-2.56487 -0.588439,-1.08162 -0.818619,-2.32569 -0.866249,-3.51155 -0.440272,-10.96116 -0.3556,-21.92946 -0.24447,-32.89485 0.0283,-2.81437 0.25453,-5.63721 0.12858,-8.44868 -0.23971,-5.3295 -0.315381,-10.66482 -0.12858,-15.98665 0.22542,-6.42276 0.0849,-12.85002 0.40058,-19.27225 0.0987,-2.00554 0.42359,-3.69094 1.914779,-5.05883 z m -5.839881,79.89993 c 0.0275,1.79043 0.028,3.40783 -1.386419,4.51829 -1.920079,1.5068 -5.396971,0.90382 -6.837889,-1.13189 -1.37292,-1.93939 -1.67931,-4.22989 -2.060051,-6.47197 -1.112309,-6.55109 -1.57003,-13.17466 -2.190221,-19.78369 -0.510638,-5.44592 -0.713309,-10.91274 -1.290899,-16.34887 -0.192879,-1.81398 -0.261409,-3.55626 0.78264,-5.14667 1.31445,-2.00211 3.343539,-2.08624 5.411779,-1.89045 1.800762,0.17065 2.735803,1.41949 3.351483,2.98344 0.768619,1.95157 0.887409,4.03463 0.996688,6.06954 0.33496,6.23067 1.032401,12.42563 1.60469,18.63355 0.47943,5.20038 0.90329,10.40553 1.366311,15.6075 0.0934,1.04987 0.332848,2.0873 0.251888,2.96122"
       id="path19860" />
  </g>
</svg>
